<mxfile host="app.diagrams.net" agent="Mozilla/5.0 (Windows NT 10.0; Win64; x64) AppleWebKit/537.36 (KHTML, like Gecko) Chrome/136.0.0.0 Safari/537.36" version="27.0.5">
  <diagram name="第 1 页" id="8X4QWYJ6eeqWuwuEFdsP">
    <mxGraphModel dx="396" dy="206" grid="1" gridSize="10" guides="1" tooltips="1" connect="1" arrows="1" fold="1" page="1" pageScale="1" pageWidth="5000" pageHeight="5000" math="0" shadow="0">
      <root>
        <mxCell id="0" />
        <mxCell id="1" parent="0" />
        <mxCell id="finlrHVOjtCiBwmt1Zku-1" value="QT上位机" style="rounded=1;whiteSpace=wrap;html=1;" vertex="1" parent="1">
          <mxGeometry x="540" y="110" width="150" height="40" as="geometry" />
        </mxCell>
        <mxCell id="finlrHVOjtCiBwmt1Zku-2" value="USB转接RS232 HUB" style="rounded=1;whiteSpace=wrap;html=1;" vertex="1" parent="1">
          <mxGeometry x="180" y="640" width="865" height="40" as="geometry" />
        </mxCell>
        <mxCell id="finlrHVOjtCiBwmt1Zku-3" value="P1-26-232-TX&lt;div&gt;PI-27-232-RX&lt;/div&gt;&lt;div&gt;P1-32-GND&lt;/div&gt;" style="rounded=1;whiteSpace=wrap;html=1;" vertex="1" parent="1">
          <mxGeometry x="840" y="375" width="117.5" height="60" as="geometry" />
        </mxCell>
      </root>
    </mxGraphModel>
  </diagram>
</mxfile>
